<?xml version="1.0"?>
<svg xmlns="http://www.w3.org/2000/svg" version="1.1" width="600px" height="600px" viewBox="0 0 200 200" style="overflow:hidden!important;">
  <defs id="SvgjsDefs1007">
    <radialGradient id="SvgjsRadialGradient2770" cx="100" cy="113" r="40" gradientUnits="userSpaceOnUse" class="svga-on-canvas-facehighlight-gradient-single-0">
      <stop id="SvgjsStop2771" stop-opacity="0.5" stop-color="#fff4f3" offset="0"/>
      <stop id="SvgjsStop2772" stop-opacity="0" stop-color="#f3d4cf" offset="0.9"/>
    </radialGradient>
    <radialGradient id="SvgjsRadialGradient2774" cx="100" cy="57" r="36" gradientUnits="userSpaceOnUse" class="svga-on-canvas-facehighlight-gradient-single-1">
      <stop id="SvgjsStop2775" stop-opacity="0.5" stop-color="#fff4f3" offset="0"/>
      <stop id="SvgjsStop2776" stop-opacity="0" stop-color="#f3d4cf" offset="0.9"/>
    </radialGradient>
    <radialGradient id="SvgjsRadialGradient4145" cx="129.05" cy="85.956" r="15.117" gradientTransform="matrix(-0.9945 0.1042 0.1042 0.9945 192.8274 -12.4637)" gradientUnits="userSpaceOnUse" class="svga-on-canvas-eyesback-gradient-left-0">
      <stop id="SvgjsStop4146" stop-opacity="1" stop-color="#ffffff" offset="0"/>
      <stop id="SvgjsStop4147" stop-opacity="1" stop-color="#fcfdfd" offset="0.316"/>
      <stop id="SvgjsStop4148" stop-opacity="1" stop-color="#f4f7f8" offset="0.505"/>
      <stop id="SvgjsStop4149" stop-opacity="1" stop-color="#e5ecef" offset="0.661"/>
      <stop id="SvgjsStop4150" stop-opacity="1" stop-color="#d8e2e7" offset="0.76"/>
    </radialGradient>
    <radialGradient id="SvgjsRadialGradient4152" cx="129.049" cy="85.956" r="15.117" gradientTransform="matrix(0.9945 0.1042 -0.1042 0.9945 7.1735 -12.4637)" gradientUnits="userSpaceOnUse" class="svga-on-canvas-eyesback-gradient-right-0">
      <stop id="SvgjsStop4153" stop-opacity="1" stop-color="#ffffff" offset="0"/>
      <stop id="SvgjsStop4154" stop-opacity="1" stop-color="#fcfdfd" offset="0.316"/>
      <stop id="SvgjsStop4155" stop-opacity="1" stop-color="#f4f7f8" offset="0.505"/>
      <stop id="SvgjsStop4156" stop-opacity="1" stop-color="#e5ecef" offset="0.661"/>
      <stop id="SvgjsStop4157" stop-opacity="1" stop-color="#d8e2e7" offset="0.76"/>
    </radialGradient>
    <radialGradient id="SvgjsRadialGradient4159" cx="129.05" cy="85.956" r="15.117" gradientTransform="matrix(-0.9945 0.1042 0.1042 0.9945 192.8274 -12.4637)" gradientUnits="userSpaceOnUse" class="svga-on-canvas-eyesfront-gradient-left-0">
      <stop id="SvgjsStop4160" stop-opacity="1" stop-color="#ffffff" offset="0"/>
      <stop id="SvgjsStop4161" stop-opacity="1" stop-color="#fcfdfd" offset="0.316"/>
      <stop id="SvgjsStop4162" stop-opacity="1" stop-color="#f4f7f8" offset="0.505"/>
      <stop id="SvgjsStop4163" stop-opacity="1" stop-color="#e5ecef" offset="0.661"/>
      <stop id="SvgjsStop4164" stop-opacity="1" stop-color="#d8e2e7" offset="0.76"/>
    </radialGradient>
    <radialGradient id="SvgjsRadialGradient4168" cx="121.786" cy="84.496" fx="133.039" fy="84.527" r="16.003" gradientTransform="matrix(0.9998 0.0208 0.0166 -0.7998 -44.9524 149.5433)" gradientUnits="userSpaceOnUse" class="svga-on-canvas-eyesfront-gradient-left-3">
      <stop id="SvgjsStop4169" stop-opacity="1" stop-color="#e4b3ab" offset="0"/>
      <stop id="SvgjsStop4170" stop-opacity="0.3" stop-color="#e4b3ab" offset="0.7"/>
      <stop id="SvgjsStop4171" stop-opacity="0" stop-color="#f3d4cf" offset="1"/>
    </radialGradient>
    <radialGradient id="SvgjsRadialGradient4173" cx="69.124" cy="107.529" r="29.525" gradientTransform="matrix(1.0336 0 0 1.0336 -1.6792 1.7282)" gradientUnits="userSpaceOnUse" class="svga-on-canvas-eyesfront-gradient-left-4">
      <stop id="SvgjsStop4174" stop-opacity="0" stop-color="#000000" offset="0.95"/>
      <stop id="SvgjsStop4175" stop-opacity="0.3" stop-color="#000000" offset="1"/>
    </radialGradient>
    <radialGradient id="SvgjsRadialGradient4179" cx="129.049" cy="85.956" r="15.117" gradientTransform="matrix(0.9945 0.1042 -0.1042 0.9945 7.1735 -12.4637)" gradientUnits="userSpaceOnUse" class="svga-on-canvas-eyesfront-gradient-right-0">
      <stop id="SvgjsStop4180" stop-opacity="1" stop-color="#ffffff" offset="0"/>
      <stop id="SvgjsStop4181" stop-opacity="1" stop-color="#fcfdfd" offset="0.316"/>
      <stop id="SvgjsStop4182" stop-opacity="1" stop-color="#f4f7f8" offset="0.505"/>
      <stop id="SvgjsStop4183" stop-opacity="1" stop-color="#e5ecef" offset="0.661"/>
      <stop id="SvgjsStop4184" stop-opacity="1" stop-color="#d8e2e7" offset="0.76"/>
    </radialGradient>
    <radialGradient id="SvgjsRadialGradient4188" cx="121.786" cy="84.496" fx="133.039" fy="84.527" r="16.003" gradientTransform="matrix(-0.9998 0.0208 -0.0166 -0.7998 244.9525 149.5433)" gradientUnits="userSpaceOnUse" class="svga-on-canvas-eyesfront-gradient-right-3">
      <stop id="SvgjsStop4189" stop-opacity="1" stop-color="#e4b3ab" offset="0"/>
      <stop id="SvgjsStop4190" stop-opacity="0.3" stop-color="#e4b3ab" offset="0.7"/>
      <stop id="SvgjsStop4191" stop-opacity="0" stop-color="#f3d4cf" offset="1"/>
    </radialGradient>
    <radialGradient id="SvgjsRadialGradient4193" cx="69.124" cy="107.529" r="29.525" gradientTransform="matrix(-1.0336 0 0 1.0336 201.6792 1.7282)" gradientUnits="userSpaceOnUse" class="svga-on-canvas-eyesfront-gradient-right-4">
      <stop id="SvgjsStop4194" stop-opacity="0" stop-color="#000000" offset="0.95"/>
      <stop id="SvgjsStop4195" stop-opacity="0.3" stop-color="#000000" offset="1"/>
    </radialGradient>
    <radialGradient id="SvgjsRadialGradient4200" cx="-558.588" cy="-490.918" r="84.646" gradientTransform="matrix(0.096 -0.0248 0.0245 0.0961 140.5478 120.3577)" gradientUnits="userSpaceOnUse" class="svga-on-canvas-eyesiris-gradient-left-1">
      <stop id="SvgjsStop4201" stop-opacity="0.8" stop-color="#ffffff" offset="0"/>
      <stop id="SvgjsStop4202" stop-opacity="0" stop-color="#ffffff" offset="1"/>
    </radialGradient>
    <radialGradient id="SvgjsRadialGradient4204" cx="-565.337" cy="-492.691" r="84.644" gradientTransform="matrix(0.0991 8.856325e-004 -0.0011 0.0991 130.3774 136.3533)" gradientUnits="userSpaceOnUse" class="svga-on-canvas-eyesiris-gradient-left-2">
      <stop id="SvgjsStop4205" stop-opacity="0.8" stop-color="#ffffff" offset="0"/>
      <stop id="SvgjsStop4206" stop-opacity="0" stop-color="#ffffff" offset="1"/>
    </radialGradient>
    <linearGradient id="SvgjsLinearGradient4210" x1="122.283" y1="93.047" x2="123.61" y2="91.466" gradientTransform="matrix(1 0 0 1 -52 0)" gradientUnits="userSpaceOnUse" class="svga-on-canvas-eyesiris-gradient-left-5">
      <stop id="SvgjsStop4211" stop-opacity="1" stop-color="#ffffff" offset="0"/>
      <stop id="SvgjsStop4212" stop-opacity="0" stop-color="#ffffff" offset="1"/>
    </linearGradient>
    <linearGradient id="SvgjsLinearGradient4218" x1="130" y1="81" x2="126" y2="85" gradientTransform="matrix(1 0 0 1 -50 0)" gradientUnits="userSpaceOnUse" class="svga-on-canvas-eyesiris-gradient-left-7">
      <stop id="SvgjsStop4219" stop-opacity="1" stop-color="#ffffff" offset="0"/>
      <stop id="SvgjsStop4220" stop-opacity="0" stop-color="#ffffff" offset="1"/>
    </linearGradient>
    <radialGradient id="SvgjsRadialGradient4223" cx="-578.76" cy="-490.73" r="84.646" gradientTransform="matrix(0.096 -0.0248 0.0245 0.0961 192.4794 119.8404)" gradientUnits="userSpaceOnUse" class="svga-on-canvas-eyesiris-gradient-right-1">
      <stop id="SvgjsStop4224" stop-opacity="0.8" stop-color="#ffffff" offset="0"/>
      <stop id="SvgjsStop4225" stop-opacity="0" stop-color="#ffffff" offset="1"/>
    </radialGradient>
    <radialGradient id="SvgjsRadialGradient4227" cx="-584.778" cy="-487.329" r="84.644" gradientTransform="matrix(0.0991 8.856325e-004 -0.0011 0.0991 182.3104 135.839)" gradientUnits="userSpaceOnUse" class="svga-on-canvas-eyesiris-gradient-right-2">
      <stop id="SvgjsStop4228" stop-opacity="0.8" stop-color="#ffffff" offset="0"/>
      <stop id="SvgjsStop4229" stop-opacity="0" stop-color="#ffffff" offset="1"/>
    </radialGradient>
    <linearGradient id="SvgjsLinearGradient4233" x1="120.284" y1="93.047" x2="121.611" y2="91.467" gradientUnits="userSpaceOnUse" class="svga-on-canvas-eyesiris-gradient-right-5">
      <stop id="SvgjsStop4234" stop-opacity="1" stop-color="#ffffff" offset="0"/>
      <stop id="SvgjsStop4235" stop-opacity="0" stop-color="#ffffff" offset="1"/>
    </linearGradient>
    <linearGradient id="SvgjsLinearGradient4241" x1="130" y1="81" x2="126" y2="85" gradientUnits="userSpaceOnUse" class="svga-on-canvas-eyesiris-gradient-right-7">
      <stop id="SvgjsStop4242" stop-opacity="1" stop-color="#ffffff" offset="0"/>
      <stop id="SvgjsStop4243" stop-opacity="0" stop-color="#ffffff" offset="1"/>
    </linearGradient>
    <linearGradient id="SvgjsLinearGradient4251" x1="130" y1="81" x2="126" y2="85" gradientTransform="matrix(1 0 0 1 -50 0)" gradientUnits="userSpaceOnUse" class="svga-on-canvas-eyesiris-gradient-left-6">
      <stop id="SvgjsStop4252" stop-opacity="1" stop-color="#ffffff" offset="0"/>
      <stop id="SvgjsStop4253" stop-opacity="0" stop-color="#ffffff" offset="1"/>
    </linearGradient>
    <linearGradient id="SvgjsLinearGradient4261" x1="130" y1="81" x2="126" y2="85" gradientUnits="userSpaceOnUse" class="svga-on-canvas-eyesiris-gradient-right-6">
      <stop id="SvgjsStop4262" stop-opacity="1" stop-color="#ffffff" offset="0"/>
      <stop id="SvgjsStop4263" stop-opacity="0" stop-color="#ffffff" offset="1"/>
    </linearGradient>
    <linearGradient id="SvgjsLinearGradient4361" x1="100" y1="141" x2="100" y2="137" gradientUnits="userSpaceOnUse" class="svga-on-canvas-mouth-gradient-single-0">
      <stop id="SvgjsStop4362" stop-opacity="1" stop-color="#ebc3bd" offset="0.1"/>
      <stop id="SvgjsStop4363" stop-opacity="1" stop-color="#e4b3ab" offset="1"/>
    </linearGradient>
    <linearGradient id="SvgjsLinearGradient4450" x1="99.98" y1="171.27" x2="99.98" y2="136.351" gradientUnits="userSpaceOnUse" class="svga-on-canvas-chinshadow-gradient-single-0">
      <stop id="SvgjsStop4451" stop-opacity="0.8" stop-color="#e4b3ab" offset="0"/>
      <stop id="SvgjsStop4452" stop-opacity="1" stop-color="#c5796d" offset="0.7"/>
    </linearGradient>
  </defs>
  <g id="svga-group-wrapper">
    <g id="svga-group-backs-single">
      <path id="SvgjsPath4320" d="M225 225H-25V-25h250V225z" fill="#c5e0dc" stroke-width="none" opacity="1" stroke="none"/>
    </g>
    <g id="svga-group-humanwrap-move" transform="matrix(1,0,0,1,0,0)">
      <g id="svga-group-humanwrap" transform="matrix(1,0,0,1,0,0)">
        <g id="svga-group-hair-back-move" transform="matrix(1,0,0,1,0,0)">
          <g id="svga-group-hair-back" transform="matrix(0.9599997000000001,0,0,0.9997997000000002,3.9225890810626822,0.01847236690939269)">
            <path id="SvgjsPath4327" d="M156.79,87.186c1.245-4.645,2.08-9.934,2.312-14.214h11.529c1.834,3.925,2.658,6.08,3.9,7.933c-1.84-0.72-3.965-1.467-7.809-4.972c0.318,0.854,4.324,12.487,4.587,14.493c-3.391-2.793-4.635-5.812-6.713-8.063c1.206,8.371,1.873,12.796-2.654,23.504C159.181,90.365,157.449,87.622,156.79,87.186zM34.506,74.599c-0.217,8.956-2.898,15.556-12.347,23.446c2.96-0.94,5.61-2.43,10.271-5.06c0.8-2.13,1.51-4.561,1.79-6.8c-0.82,7.9-5.598,13.347-1.274,22.677c0.606-7.783,3.254-13.309,10.093-17.755c-0.216,0.149-0.716,0.513-1.372,1.089c0.747-0.612,1.527-1.188,2.333-1.728c-1.567-4.835-2.861-12.029-2.909-15.869H34.506z M33.478,81.232c-1.485-1.845-2.84-4.664-3.422-6.633h4.441C34.344,75.986,34.038,79.067,33.478,81.232z" fill="#1b141c" stroke-width="none" opacity="1"/>
            <path id="SvgjsPath4328" d="M173.749,80.275c-1.258-1.878-2.29-4.05-3.289-6.204h1.082c1.02,2.248,2.179,5.013,3.497,7.194c-3.51-1.04-5.28-2.09-7.91-4.72c3.17,7.87,3.66,11.71,5.19,14.94c-4.49-2.72-5.15-6.06-7.49-8.73c1.51,7.79,2.98,13.92-3.43,25.09c0-6.07-1.29-13.851-3.55-19.8c3.289,3.15,3.819,13.52,4.079,17.08c1.011-2.39,1.851-4.84,2.511-7.37c1.75-6.68,0.18-12.78-0.15-15.8c1.913,1.238,4.051,5.872,6.9,8.22c-1.801-4.38-2-6.61-5.399-15.54C168.6,77.325,171.119,79.245,173.749,80.275z M32.749,108.115c-3.38-8.12,0.65-14.03,1.47-21.93c-0.28,2.24-1.09,4.37-1.89,6.5c-4.66,2.63-6.61,4.12-9.57,5.06c9.449-7.89,11.529-13.99,11.747-22.946h-0.108c-0.153,1.387-0.459,3.801-1.019,5.966c-1.485-1.845-2.559-4.216-3.141-6.185l-1.204,0.011c0.695,2.252,2.058,4.925,4.075,7.094c-1.63,6.99-6.84,12.3-12.02,16.88c3.33-0.1,7.88-2.78,10.79-4.66c-2.09,5.7-2.23,10.66,1.77,17.57c-0.246-10.686,5.281-16.878,8.017-19.28c0.656-0.576,1.156-0.94,1.372-1.089C36.199,95.554,33.355,100.333,32.749,108.115z" fill="#000000" stroke-width="none" opacity="1"/>
          </g>
        </g>
        <g id="svga-group-humanbody-single">
          <path id="SvgjsPath2777" d="M190.858 199.866c-6.008-10.158-13.474-11.973-19.628-13.936 -6.323-2.016-19.346-3.178-26.449-4.6 -6.86-1.373-23.153-5.789-23.339-13.488 -0.192-8.066 4.291-40.09 4.291-40.09H74.005c0 0 4.487 32.023 4.294 40.09 -0.184 7.699-16.48 12.115-23.341 13.488 -7.104 1.422-20.125 2.584-26.448 4.6 -6.156 1.963-13.624 3.777-19.632 13.936 -3.644 6.16-6.008 16.133-6.008 27.133h194C196.869 215.999 194.509 206.026 190.858 199.866z" fill="#f3d4cf" stroke-width="none" opacity="1" stroke="none"/>
          <path id="SvgjsPath2778" d="M121.442 167.843c2.495 10.929 18.165 13.698 26.293 15.325 21.909 4.379 33.772 5.134 42.297 19.539 2.903 4.916 5.459 15.864 5.962 24.153 1.835 0.291 0.531-17.432-5.136-26.994 -9.742-16.472-29.089-15.135-46.077-18.535C137.921 179.958 121.628 175.542 121.442 167.843L121.442 167.843zM78.558 167.843c-0.186 7.699-16.479 12.115-23.339 13.488 -16.988 3.4-36.335 2.063-46.077 18.535 -5.667 9.563-6.971 27.285-5.136 26.994 0.503-8.289 3.059-19.237 5.962-24.153 8.524-14.405 20.388-15.16 42.297-19.539C60.393 181.541 76.063 178.771 78.558 167.843L78.558 167.843z" fill="#fff4f3" stroke-width="none" opacity="1" stroke="none"/>
          <path id="SvgjsPath2779" d="M51.206 189.513c0 0 28.641 0.299 33.473 1.885 2.314 0.758 8.372 5.633 8.372 5.633s-6.556-3.17-8.658-3.758C79.51 191.909 51.206 189.513 51.206 189.513zM99.795 199.999c2.053-0.041 7.887-3.799 7.887-3.799s-5.574 2.059-7.342 2.16c-1.491 0.086-6.366-1.238-6.366-1.238S98.112 200.032 99.795 199.999zM117.008 192.757c6.75-1.818 29.786-3.23 29.786-3.23s-23.791-0.516-30.51 1.725c-2.252 0.752-7.562 5.16-7.562 5.16S114.786 193.354 117.008 192.757z" fill="#e4b3ab" stroke-width="none" opacity="1" stroke="none"/>
          <path id="SvgjsPath2780" d="M190.858 199.866c-9.741-16.471-29.122-15.142-46.077-18.535 -6.86-1.373-23.153-5.789-23.339-13.488 -0.192-8.066 4.291-40.09 4.291-40.09H74.005c0 0 4.487 32.023 4.294 40.09 -0.184 7.699-16.48 12.115-23.341 13.488 -7.104 1.422-20.125 2.584-26.448 4.6 -6.156 1.963-13.624 3.777-19.632 13.936 -3.644 6.16-6.008 16.133-6.008 27.133h194C196.869 215.999 194.509 206.026 190.858 199.866z" fill="none" stroke="#c5796d" stroke-width="1.5" opacity="1"/>
        </g>
        <g id="svga-group-chinshadow-single">
          <path id="SvgjsPath4449" d="M74.767 128.517c0.63 4.561 3.424 25.109 4.058 35.365 4.747 3.863 11.162 7.168 21.177 7.121 9.822 0.046 16.18-3.132 20.899-6.899 0.607-10.183 3.436-30.995 4.069-35.587l0.017-0.113H74.751L74.767 128.517z" fill="url(#SvgjsLinearGradient4450)" opacity="1"/>
        </g>
        <g id="svga-group-clothes-single">
          <path id="SvgjsPath4322" d="M176.662 239.205c-4.731-0.031-142.126-1.232-153.208-1.823 1.595-10.032 4.924-15.048 10.136-20.336 0.397-10.141-3-24.685-4.583-31.951 1.592-4.057 4.741 0.357 20.731-4.584 4.066-1.013 8.65-7.315 14.947-2.354 -2.199 0.903-4.148 1.319-5.923 1.756 -2.657 14.611 31.716 40.78 40.839 45.67 11.181-5.065 44.953-33.159 41.373-45.645 -0.346-0.158-4.268-1.11-5.551-1.71 2.176-1.919 5.892-2.672 9.589-0.353 4.431 2.771 12.578 5.406 22.848 5.406 1.323 0 2.337 0.34 2.986 1.999 -1.114 5.095-4.727 22.604-4.667 31.635C174.006 224.707 175.121 229.664 176.662 239.205z" fill="#39557e" stroke-width="none" opacity="1"/>
          <path id="SvgjsPath4323" d="M150.077 185.14c-3.109 8.592-5.631 11.417-7.907 14.465 -2.618 3.506-3.455 5.129-2.205 2.785C144.613 193.068 145.855 193.511 150.077 185.14zM147.508 213.521c-0.232 1.071-0.375 1.72-0.344 1.593 2.81-9.574 9.184-26.459 9.184-26.459C154.178 195.795 151.241 196.15 147.508 213.521zM55.885 200c14.044 17.188-2.303-2.73-7.432-12.774C50.601 192.177 52.189 195.138 55.885 200zM54.307 216.992c-0.395-1-6.421-22.676-11.549-26.604C45.151 192.344 54.679 217.992 54.307 216.992z" fill="#27446f" stroke-width="none" opacity="1"/>
          <path id="SvgjsPath4324" d="M170.847 185.281c-0.14 0.637-0.436 1.843-0.642 2.827 -2.355-0.396-5.961-1.215-5.961-0.373 -0.866 9.101-1.283 8.2-2.025 16.167 0.073-10.926 2.019-11.629-0.219-16.902 -6.053-1.017-11.768-2.581-17.019-4.186 -2.151 8.861-12.232 20.261-8.525 15.445 3.343-4.392 6.313-10.895 7.528-15.751 -0.939-0.29-1.867-0.581-2.774-0.869 -0.021-0.591-0.082-1.165-0.235-1.701 -0.346-0.158-4.268-1.11-5.551-1.71 2.176-1.919 5.892-2.672 9.589-0.353 4.431 2.771 12.578 5.406 22.848 5.406C169.184 183.282 170.197 183.622 170.847 185.281zM29.153 185.281c0.14 0.637 0.436 1.843 0.642 2.827 2.355-0.396 5.895-0.783 5.895-0.783 -0.26 5.06 1.35 7.61 2.092 15.577C37.708 191.977 36.014 192.189 37 187c6.053-1.017 12.768-2.581 18.019-4.186 2.151 8.861 13.232 22.001 9.525 17.186 -3.343-4.392-7.313-12.635-8.528-17.491 0.939-0.29 1.867-0.581 2.774-0.869 0.021-0.591 0.082-1.165 0.235-1.701 0.346-0.158 4.268-1.11 5.551-1.71 -2.176-1.919-5.892-2.672-9.589-0.353 -4.431 2.771-12.578 5.406-22.848 5.406C30.816 183.282 29.803 183.622 29.153 185.281z" fill="#4e688d" stroke-width="none" opacity="1"/>
          <path id="SvgjsPath4325" d="M58.769 179.936c0-0.801 0.47-1.651 1.339-1.651 0.476 0 1.025 0.247 1.633 0.733l0.146 0.117 -0.178 0.057c-0.73 0.23-1.982 0.597-2.722 0.813l-0.128 0.038L58.769 179.936zM140.869 179.995c-0.016 0-0.016 0-1.14-0.35l-1.301-0.402 0.162-0.119c0.529-0.385 0.955-0.572 1.3-0.572 0.533 0 0.885 0.433 1.076 1.323l0.026 0.12H140.869z" fill="#18355f" stroke-width="none" opacity="1"/>
          <path id="SvgjsPath4326" d="M166.279 216.915c-0.055-8.281 2.988-23.902 4.66-31.67 -1.18-3.017-3.58-1.753-6.03-2.02 -15.956-1.477-19.064-5.281-21.12-6.16 -2.655-1.258-6.253-0.91-8.479 1.13 -0.021 0.01-0.04 0.03-0.061 0.06 1.22 0.625 4.63 1.429 5.63 1.711 3.549 12.378-29.553 40.193-41.23 45.529 -9.231-4.947-43.363-30.894-40.8-45.5 0.113-0.027 2.995-0.729 3.1-0.779 0.039 0 2.487-0.819 2.92-1.03 -0.02-0.01-0.04-0.03-0.05-0.05 -6.392-5.112-11.061 1.27-15.11 2.279 -16.079 4.97-19.171 0.454-20.8 4.7 0.213 1 5.017 20.344 4.61 31.86 -5.072 5.146-8.551 10.14-10.16 20.399 -0.01 0.04-0.02 0.07-0.02 0.101 10.231 0.588 152.439 1.83 153.44 1.83C175.204 229.537 174.033 224.594 166.279 216.915zM138.649 179.205c1.198-0.872 1.907-0.766 2.22 0.69C140.868 179.896 138.65 179.205 138.649 179.205zM58.869 179.936c0-1 0.825-2.429 2.81-0.84C60.919 179.336 59.593 179.724 58.869 179.936zM23.899 237.365c3.735-15.164 12.067-23.607 14.47-23.68 -1.422 0-3.53 1.973-4.53 2.96 0.941-11.17-2.007-22.558-4.63-31.54 1.216-2.388 3.067-1.38 5.53-1.38 22.481 0 21.745-12.367 29.94-5.54 -0.409 0.163-2.524 0.757-2.9 0.88 -3.441-3.277-3.946 2.577-2.91 7.54 5.004 16.15 35.575 39.59 40.71 39.59 15.945-6.354 44.861-31.908 41.59-46.16 0.01-0.02 0-0.04-0.01-0.06 -0.188-1.347-1.059-2.112-2.62-0.811 -0.904-0.285-1.897-0.549-3.09-0.92 5.239-4.381 10.854 1.216 12.77 2.19 4.607 2.536 12.876 3.43 16.681 3.43 2.626 0.086 4.562-1.097 5.739 1.351 -2.909 9.728-5.29 21.217-4.67 31.39 -1.057-1.004-2.635-2.41-4.05-2.76 6.852 2.486 13.144 17.17 14.4 25.26C108.784 236.728 100.525 237.005 23.899 237.365z" fill="#0c2850" stroke-width="none" opacity="1"/>
        </g>
        <g id="svga-group-head" transform="matrix(1,0,0,1,0,0)">
          <g id="svga-group-ears-left-move" transform="matrix(1,0,0,1,3,0)" style="">
            <g id="svga-group-ears-left" transform="matrix(1,0,0,1,0,0)">
              <path id="SvgjsPath3833" d="M45.671 83.846c-1.485-2.408-6.327-8.995-10.031-8.071 -3.012 0.755-2.973 4.861-3.206 7.289 -0.34 3.563-0.464 9.771 0.525 12.29 0.951 2.418 3.96 7.092 5.828 8.874 2.299 2.185 5.97 9.15 6.422 9.872 0.711 1.142 2.137 2.776 4.325 2.647 3.071-0.181 5.724-3.018 5.965-4.386C56.8 104.941 49.536 90.11 45.671 83.846z" fill="#f3d4cf" stroke="#c5796d" stroke-width="1.5" opacity="1"/>
              <path id="SvgjsPath3834" d="M44.2 98.511c-0.143-0.55 0.007-1.479 0.154-2.375 0.133-0.817 0.258-1.588 0.182-2.134 -0.289-2.043-1.915-5.926-2.976-8.03 -1.223-2.421-3.199-5.471-5.679-6.257 -1.024-0.326-1.699 0.063-2.089 0.458 -0.288 0.29-0.353 0.63-0.259 0.671 0.095 0.04 0.307-0.242 0.617-0.508 0.254-0.217-0.508-0.039 0 0 -0.205 1.017-0.865 6.162-0.41 9.918 0.358 2.955 1.05 5.162 1.263 5.492 0.031 0.349 0.083 0.689 0.16 1.02 1.002 4.312 7.518 9.95 9.034 11.557 0.28 0.296 0.574 0.473 0.646 0.4 0.072-0.073-0.101-0.365-0.379-0.664 -1.498-1.595-7.971-7.214-8.939-11.375 -1.027-4.414 3.912-10.958 4.699-12.343 0.401 0.65 0.742 1.274 1.004 1.795 0.207 0.408 0.434 0.886 0.67 1.403 -0.463 0.721-5.118 5.992-3.934 10.21 0.438 1.556 3.822 3.561 5.131 4.11 0.72 0.303 0.99 0.754 1.304 1.277 0.364 0.608 0.033 2.179 1.23 2.677 0.244 0.103 0.464 0.144 0.659 0.144 0.338 0 0.594-0.127 0.783-0.278 0.02 0.266 0.019 0.605 0.009 0.921 -0.012 0.407 0.047 0.596 0.148 0.604 0.103 0.008 0.21-0.17 0.223-0.574 0.017-0.5 0.014-1.116-0.077-1.412 -0.269-0.868-1.088-1.851-1.957-2.89C44.563 101.304 44.422 99.364 44.2 98.511zM34.969 94.688c-2.348-6.77 1.283-12.936 1.81-13.865 1.012 0.39 2.562 2.145 3.221 3.163C39.52 84.802 35.067 90.135 34.969 94.688zM45.772 105.475c-1.084-0.451-0.706-1.939-1.056-2.525 -0.318-0.531-0.646-1.078-1.479-1.429 -0.18-0.076-0.379-0.191-0.583-0.325 -2.682-5.939 0.293-8.537 1.039-9.068 0.229 0.726 0.399 1.392 0.476 1.926 0.068 0.49-0.059 1.27-0.181 2.023 -0.153 0.934-0.31 1.901-0.147 2.526 0.244 0.931 0.411 2.904 1.291 3.958 0.781 0.935 1.583 1.899 1.857 2.685C46.871 105.403 46.5 105.778 45.772 105.475z" fill="#c5796d" stroke-width="none" opacity="1"/>
            </g>
          </g>
          <g id="svga-group-ears-right-move" transform="matrix(1,0,0,1,-3,0)" style="">
            <g id="svga-group-ears-right" transform="matrix(1,0,0,1,0,0)">
              <path id="SvgjsPath3835" d="M154.066 83.846c1.486-2.408 6.328-8.995 10.031-8.071 3.012 0.755 2.973 4.861 3.207 7.289 0.34 3.563 0.463 9.771-0.525 12.29 -0.951 2.418-3.961 7.092-5.828 8.874 -2.299 2.185-5.971 9.15-6.422 9.872 -0.711 1.142-2.137 2.776-4.326 2.647 -3.07-0.181-5.723-3.018-5.965-4.386C142.938 104.941 150.203 90.11 154.066 83.846z" fill="#f3d4cf" stroke="#c5796d" stroke-width="1.5" opacity="1"/>
              <path id="SvgjsPath3836" d="M154.322 102.327c-0.869 1.039-1.688 2.022-1.957 2.89 -0.092 0.296-0.094 0.912-0.078 1.412 0.014 0.404 0.121 0.582 0.225 0.574 0.102-0.008 0.16-0.196 0.148-0.604 -0.01-0.315-0.012-0.655 0.008-0.921 0.189 0.151 0.445 0.278 0.783 0.278 0.195 0 0.416-0.041 0.66-0.144 1.195-0.498 0.865-2.068 1.229-2.677 0.314-0.523 0.584-0.975 1.305-1.277 1.309-0.549 4.693-2.554 5.131-4.11 1.184-4.218-3.471-9.489-3.934-10.21 0.234-0.517 0.463-0.995 0.668-1.403 0.264-0.521 0.604-1.145 1.006-1.795 0.787 1.384 5.725 7.929 4.699 12.343 -0.969 4.161-7.441 9.781-8.939 11.375 -0.279 0.299-0.453 0.591-0.381 0.664 0.074 0.072 0.367-0.104 0.646-0.4 1.516-1.606 8.031-7.245 9.033-11.557 0.078-0.33 0.131-0.671 0.162-1.02 0.211-0.331 0.904-2.537 1.262-5.492 0.455-3.756-0.205-8.901-0.41-9.918 0.508-0.039-0.254-0.217 0 0 0.311 0.266 0.523 0.548 0.617 0.508 0.094-0.041 0.029-0.381-0.258-0.671 -0.391-0.394-1.066-0.784-2.09-0.458 -2.48 0.786-4.457 3.836-5.68 6.257 -1.061 2.104-2.686 5.987-2.975 8.03 -0.076 0.546 0.049 1.317 0.182 2.134 0.146 0.896 0.297 1.824 0.154 2.375C155.316 99.364 155.176 101.304 154.322 102.327zM159.738 83.987c0.66-1.019 2.209-2.773 3.221-3.163 0.527 0.929 4.158 7.095 1.811 13.865C164.672 90.135 160.219 84.802 159.738 83.987zM152.75 105.246c0.273-0.785 1.076-1.75 1.857-2.685 0.879-1.053 1.047-3.026 1.291-3.958 0.162-0.625 0.006-1.592-0.146-2.526 -0.123-0.754-0.25-1.534-0.182-2.023 0.076-0.535 0.246-1.201 0.475-1.926 0.746 0.531 3.721 3.128 1.039 9.068 -0.203 0.133-0.402 0.249-0.584 0.325 -0.832 0.351-1.16 0.898-1.479 1.429 -0.35 0.586 0.029 2.074-1.055 2.525C153.238 105.778 152.867 105.403 152.75 105.246z" fill="#c5796d" stroke-width="none" opacity="1"/>
            </g>
          </g>
          <g id="svga-group-faceshape-wrap" transform="matrix(0.9599997000000001,0,0,0.9997997000000002,4.000130250996008,0.016037769435882865)">
            <g id="svga-group-faceshape-single">
              <path id="SvgjsPath4446" d="M100.002 0.867C66.384 0.919 39.082 28.09 39.134 61.564c0.009 5.316 0.704 10.471 2.002 15.382h0.001C41.15 77 51.427 107.873 54.086 120.29c2.38 11.116 12.959 20.132 17.72 25.046 5.47 5.649 12.307 14.008 28.197 13.934 15.889 0.074 22.727-8.284 28.197-13.934 4.761-4.914 15.34-13.93 17.72-25.046 2.659-12.417 12.937-43.291 12.947-43.344h0.002c1.298-4.911 1.994-10.066 2.002-15.382C160.923 28.09 133.62 0.919 100.002 0.867z" fill="#f3d4cf" stroke-width="none" opacity="1"/>
              <path id="SvgjsPath4447" d="M133.47 10.898c14.604 11.017 24.131 29.011 24.1 49.346 -0.008 5.315-0.664 10.471-1.892 15.382h-0.002c-0.011 0.053-9.73 30.925-12.246 43.342 -2.251 11.117-12.256 20.132-16.76 25.047 -5.173 5.649-11.64 14.008-26.667 13.934 -15.028 0.074-21.495-8.284-26.668-13.934 -4.502-4.915-14.508-13.93-16.759-25.047C54.06 106.552 44.34 75.68 44.329 75.626h-0.001c-1.228-4.911-1.885-10.066-1.893-15.382 -0.03-20.335 9.497-38.33 24.101-49.346 -16.522 10.863-27.433 29.499-27.4 50.666 0.009 5.316 0.704 10.471 2.002 15.382h0.001C41.15 77 51.427 107.873 54.086 120.29c2.38 11.116 12.959 20.132 17.72 25.046 5.47 5.649 12.307 14.008 28.197 13.934 15.889 0.074 22.727-8.284 28.197-13.934 4.761-4.914 15.34-13.93 17.72-25.046 2.659-12.417 12.937-43.291 12.947-43.344h0.002c1.298-4.911 1.994-10.066 2.002-15.382C160.903 40.398 149.992 21.762 133.47 10.898z" fill="#ebc3bd" stroke-width="none" opacity="1"/>
              <path id="SvgjsPath4448" d="M100.002 0.867C66.384 0.919 39.082 28.09 39.134 61.564c0.009 5.316 0.704 10.471 2.002 15.382h0.001C41.15 77 51.427 107.873 54.086 120.29c2.38 11.116 12.959 20.132 17.72 25.046 5.47 5.649 12.307 14.008 28.197 13.934 15.889 0.074 22.727-8.284 28.197-13.934 4.761-4.914 15.34-13.93 17.72-25.046 2.659-12.417 12.937-43.291 12.947-43.344h0.002c1.298-4.911 1.994-10.066 2.002-15.382C160.923 28.09 133.62 0.919 100.002 0.867z" fill="none" stroke="#c5796d" stroke-width="1.5" opacity="1"/>
            </g>
          </g>
          <g id="svga-group-mouth-single-move" transform="matrix(1,0,0,1,0,2)">
            <g id="svga-group-mouth-single" transform="matrix(1.1000003000000003,0,0,1.1000003000000003,-9.98298244824717,-13.446243570421245)">
              <path id="SvgjsPath4360" d="M99.867 141.087c-4.159 0-7.258-4.297-7.258-4.297 7.261 3.32 14.915 0 14.915 0S103.516 141.087 99.867 141.087z" fill="url(#SvgjsLinearGradient4361)" opacity="1"/>
              <path id="SvgjsPath4364" d="M112.127 131.943c0 0.625-7.773 3.456-12.258 3.575 -4.18 0.112-12.333-2.682-12.333-3.575 0-0.892 6.441-1.558 12.729-1.558C106.555 130.386 112.127 131.052 112.127 131.943z" fill="#ffffff" stroke-width="none" opacity="1"/>
              <path id="SvgjsPath4365" d="M95.441 127.853c0.99-0.131 2.728 0.908 4.824 0.909 1.541 0.002 3.426-1.067 4.612-0.909 2.529 0.341 3.857 1.882 10.491 2.47 0 0-3.22 1.083-4.075 1.15 -2.72 0.216-7.215-0.169-11.287-0.181 -4.556-0.02-8.941 0.43-11.697 0.301 -0.994-0.051-3.941-1.137-3.941-1.137C89.901 130.196 92.547 128.235 95.441 127.853zM84.369 130.818c0 0 4.514 3.538 6.253 4.76 2.007 1.411 5.029 3.623 9.474 3.557 3.563-0.058 6.641-1.816 8.477-2.986 1.978-1.259 6.796-5.463 6.796-5.463 -2.77 0.633-2.77 0.633-4.075 1.149 -2.741 1.084-7.477 2.722-11.173 2.722 -4.563 0-8.936-1.639-11.811-2.603C86.315 131.286 84.369 130.818 84.369 130.818z" fill="#e88ea4" stroke="#d96f89" stroke-width="0.75" opacity="1"/>
              <path id="SvgjsPath4366" d="M115.592 130.572c-0.458 0.663-2.14 0.715-2.888 0.977 -1.098 0.383-2.162 0.856-3.259 1.245 -2.693 0.954-5.51 1.792-8.375 1.98 -5.336 0.351-10.599-1.808-15.596-3.41 -0.424-0.136-0.994-0.175-1.359-0.449 -0.326-0.244-0.015-0.768 0.336-0.701 1.051 0.199 2.092 0.731 3.141 0.994 1.224 0.308 2.583 0.16 3.832 0.113 1.592-0.059 3.184-0.146 4.777-0.207 2.927-0.109 5.842-0.053 8.768 0.059 2.621 0.101 5.366 0.402 7.915-0.332 0.688-0.199 1.379-0.399 2.047-0.656C115.179 130.09 115.94 130.07 115.592 130.572 115.415 130.828 115.632 130.515 115.592 130.572zM108.39 131.773c-3.415 0.013-6.822-0.286-10.24-0.217 -1.874 0.038-3.745 0.139-5.617 0.219 -0.566 0.024-1.625-0.143-2.11 0.204 -0.466 0.334 1.182 0.807 1.325 0.852 3.306 1.039 6.829 1.78 10.304 1.346 1.704-0.214 3.382-0.632 5.023-1.13 0.64-0.195 1.439-0.341 1.987-0.743C109.635 131.883 108.656 131.773 108.39 131.773 107.333 131.777 109.492 131.771 108.39 131.773z" fill="#ba3a59" stroke-width="none" opacity="1"/>
              <path id="SvgjsPath4367" d="M99.901 138.136c-4.165 0-7.465-2.404-10.634-4.801 7.714 2.61 14.222 2.572 21.819-0.346C107.874 135.609 104.215 138.095 99.901 138.136zM93.601 130.478c5.567-0.262 11.102 0.228 16.657 0.047 -1.847-0.453-3.623-1.426-5.512-1.681 -1.452-0.142-2.984 0.918-4.481 0.918 -1.633-0.001-3.113-0.918-4.692-0.918 -2.024 0.27-3.923 1.229-5.881 1.771C90.996 130.593 92.299 130.547 93.601 130.478 95.469 130.39 92.18 130.543 93.601 130.478z" fill="#f7b0c2" stroke-width="none" opacity="1"/>
              <path id="SvgjsPath4368" d="M95.134 136.031c1.596 0.319 3.265 0.525 4.987 0.525 1.453 0 3.029-0.222 4.598-0.563 -1.384 0.624-2.973 1.132-4.654 1.141C98.283 137.145 96.471 136.67 95.134 136.031z" fill="#ffcfdb" stroke-width="none" opacity="1"/>
            </g>
          </g>
          <g id="svga-group-eyes-left-move" transform="matrix(1,0,0,1,3,1)">
            <g id="svga-group-eyes-left" transform="matrix(0.8999997000000001,0,0,0.8999997000000001,7.421724650055879,8.799926454631802)">
              <g id="svga-group-eyesback-left">
                <path id="SvgjsPath4144" d="M61.952 84.523c-0.506-2.285 5.191-3.973 12.711-3.051 7.518 0.923 12.738 5.524 12.052 7.844 -0.38 1.286-10.639 3.245-14.253 2.847C68.798 91.758 63.174 90.04 61.952 84.523z" fill="url(#SvgjsRadialGradient4145)" opacity="1"/>
              </g>
              <g id="svga-group-eyesiriswrapper-left" transform="matrix(1,0,0,1,-0.75,-0.5)">
                <g id="svga-group-eyesiriscontrol-left" transform="matrix(1,0,0,1,0,0)">
                  <g id="svga-group-eyesiris-left" transform="matrix(0.7999993000000002,0,0,0.7999993000000002,15.000733807316195,17.399954851044825)">
                    <path id="SvgjsPath4337" d="M83.199 89.25c-1.231 4.522-5.896 7.187-10.429 5.944 -4.528-1.241-7.203-5.918-5.97-10.442 1.23-4.526 5.905-7.19 10.434-5.947C81.761 80.045 84.433 84.723 83.199 89.25z" fill="#7b5c33" stroke="#4d3009" stroke-width="0.5" opacity="1"/>
                    <path id="SvgjsPath4338" d="M81.878 89.354c-1.202 3.473-4.827 5.499-8.357 4.531 -3.258-0.894-5.315-4.02-5.048-7.325 1.209-0.096 2.532-0.124 3.904-0.056 -0.014 0.047-0.039 0.087-0.051 0.136 -0.434 1.594 0.576 3.265 2.256 3.726 1.685 0.461 3.401-0.462 3.835-2.056 0.055-0.208 0.085-0.417 0.093-0.623C79.66 88.108 80.792 88.651 81.878 89.354z" fill="#8a6d47" stroke-width="none" opacity="1"/>
                    <path id="SvgjsPath4339" d="M76.151 84.464c-1.703-0.487-3.44 0.485-3.88 2.181 -0.44 1.687 0.584 3.454 2.286 3.942 1.705 0.489 3.443-0.484 3.884-2.173C78.884 86.719 77.855 84.953 76.151 84.464zM76.523 90.46c-0.708 0.22-1.441-0.072-1.636-0.655 -0.188-0.582 0.231-1.228 0.945-1.443 0.712-0.22 1.442 0.073 1.639 0.651C77.665 89.593 77.241 90.24 76.523 90.46z" fill="#000000" stroke-width="none" opacity="0.9"/>
                    <path id="SvgjsPath4340" d="M70.482 91.476c-0.523 0.314-1.307 0.034-1.754-0.633 -0.448-0.66-0.381-1.451 0.145-1.767 0.521-0.311 1.311-0.03 1.755 0.632C71.07 90.37 71.006 91.162 70.482 91.476z" fill="#ffffff" stroke-width="none" opacity="0.6"/>
                    <path id="SvgjsPath4341" d="M81.673 86.632c-1.198 0.718-2.999 0.072-4.02-1.445 -1.02-1.518-0.867-3.331 0.332-4.047 1.196-0.721 3-0.074 4.015 1.444C83.019 84.101 82.871 85.913 81.673 86.632z" fill="#ffffff" stroke-width="none" opacity="0.9"/>
                  </g>
                </g>
              </g>
              <g id="svga-group-eyesfront-left">
                <path id="SvgjsPath4166" d="M55.5 88c0 13.807 8.06 24.999 18 24.999s18-11.192 18-24.999c0-13.808-8.06-25-18-25S55.5 74.192 55.5 88zM61.952 84.523c-0.506-2.285 5.191-3.973 12.711-3.051 7.518 0.923 12.738 5.524 12.052 7.844 -0.38 1.286-10.639 3.245-14.253 2.847C68.798 91.758 63.174 90.04 61.952 84.523z" fill="#f3d4cf" stroke-width="none" opacity="1"/>
                <path id="SvgjsPath4167" d="M72.462 92.163c3.614 0.398 13.873-1.561 14.253-2.847 0.687-2.32-4.534-6.921-12.052-7.844 -6.46-0.792-11.563 0.345-12.556 2.128 0.898-6.4 7.7-11.397 15.987-11.434 8.911-0.037 16.148 5.676 16.172 12.765 0.021 7.088-7.185 12.862-16.095 12.902 -8.913 0.037-16.149-5.676-16.173-12.764 0-0.105 0.016-0.208 0.019-0.313C63.348 90.083 68.852 91.764 72.462 92.163z" fill="url(#SvgjsRadialGradient4168)" opacity="1"/>
                <path id="SvgjsPath4172" d="M61.952 84.523c-0.506-2.285 5.191-3.973 12.711-3.051 7.518 0.923 12.738 5.524 12.052 7.844 -0.38 1.286-10.639 3.245-14.253 2.847C68.798 91.758 63.174 90.04 61.952 84.523z" fill="url(#SvgjsRadialGradient4173)" opacity="1"/>
                <path id="SvgjsPath4176" d="M62.349 79.417c4.208-1.978 9.35-2.16 13.838-1.005 2.404 0.561 4.965 1.285 7.063 2.638 1.945 1.135 3.525 2.5 5.002 4.19 -1.342-1.701-2.773-3.118-4.623-4.27 -2.276-1.416-4.769-2.294-7.364-2.916C71.678 76.928 66.542 77.184 62.349 79.417z" fill="#c5796d" stroke-width="none" opacity="1"/>
                <path id="SvgjsPath4177" d="M57.318 80.972c0 0 2.328 0.881 3.595 0.62 -0.39-0.459-1.096-1.604-1.096-1.604s1.853 0.551 3.151 0.032c0.88-0.352 4.065-1 5.456-1.066 1.687-0.082 5.073 0.125 6.735 0.424 3.374 0.608 8.985 2.63 11.678 7.184 0.255 0.572 1.407 0.921 1.407 0.921s-1.02-0.215-1.149 0.042c-0.282 0.561 1.298 2.016 1.496 2.197 -0.161-0.145-1.289-1.135-1.722-0.967 -0.061 0.022-0.137 0.388-0.155 0.482 0.3-2.426-4.838-6.746-12.052-7.604 -7.52-0.894-13.217 0.743-12.711 2.958 1.222 5.348 6.846 7.013 10.51 7.405 2.526 0.271 8.298-0.577 11.675-1.537l1.011-0.317c-1.999 1.009-7.524 2.195-9.767 2.403 -0.744 0.07-2.24 0.104-2.986 0.085 -5.949-0.158-10.16-3.179-11.729-7.26 -0.125-0.328-0.494-0.619-0.838-0.696 -1.604-0.361-5.096-1.811-5.096-1.811 2.32 0.361 3.483 0.674 5.305 0.059C58.257 82.256 57.318 80.972 57.318 80.972z" fill="#000000" stroke-width="none" opacity="1"/>
              </g>
            </g>
          </g>
          <g id="svga-group-eyes-right-move" transform="matrix(1,0,0,1,-3,1)">
            <g id="svga-group-eyes-right" transform="matrix(0.8999997000000001,0,0,0.8999997000000001,12.578335540679547,8.799926454631802)">
              <g id="svga-group-eyesback-right">
                <path id="SvgjsPath4151" d="M138.048 84.523c0.506-2.285-5.191-3.973-12.711-3.051 -7.518 0.923-12.738 5.524-12.052 7.844 0.38 1.286 10.639 3.245 14.253 2.847C131.202 91.758 136.826 90.04 138.048 84.523z" fill="url(#SvgjsRadialGradient4152)" opacity="1"/>
              </g>
              <g id="svga-group-eyesiriswrapper-right" transform="matrix(1,0,0,1,0.75,-0.5)">
                <g id="svga-group-eyesiriscontrol-right" transform="matrix(1,0,0,1,0,0)">
                  <g id="svga-group-eyesiris-right" transform="matrix(0.7999993000000002,0,0,0.7999993000000002,24.9994039038574,17.399954851044825)">
                    <path id="SvgjsPath4342" d="M133.199 89.25c-1.231 4.522-5.896 7.187-10.429 5.944 -4.528-1.241-7.203-5.918-5.97-10.442 1.23-4.526 5.905-7.19 10.434-5.947C131.761 80.045 134.433 84.723 133.199 89.25z" fill="#7b5c33" stroke="#4d3009" stroke-width="0.5" opacity="1"/>
                    <path id="SvgjsPath4343" d="M131.878 89.354c-1.202 3.473-4.827 5.499-8.357 4.531 -3.258-0.894-5.315-4.02-5.048-7.325 1.209-0.096 2.532-0.124 3.904-0.056 -0.014 0.047-0.039 0.087-0.051 0.136 -0.434 1.594 0.576 3.265 2.256 3.726 1.685 0.461 3.401-0.462 3.835-2.056 0.055-0.208 0.085-0.417 0.093-0.623C129.66 88.108 130.792 88.651 131.878 89.354z" fill="#8a6d47" stroke-width="none" opacity="1"/>
                    <path id="SvgjsPath4344" d="M126.151 84.464c-1.703-0.487-3.44 0.485-3.88 2.181 -0.44 1.687 0.584 3.454 2.286 3.942 1.705 0.489 3.443-0.484 3.884-2.173C128.884 86.719 127.855 84.953 126.151 84.464zM126.523 90.46c-0.708 0.22-1.441-0.072-1.636-0.655 -0.188-0.582 0.231-1.228 0.945-1.443 0.712-0.22 1.442 0.073 1.639 0.651C127.665 89.593 127.241 90.24 126.523 90.46z" fill="#000000" stroke-width="none" opacity="0.9"/>
                    <path id="SvgjsPath4345" d="M120.482 91.476c-0.523 0.314-1.307 0.034-1.754-0.633 -0.448-0.66-0.381-1.451 0.145-1.767 0.521-0.311 1.311-0.03 1.755 0.632C121.07 90.37 121.006 91.162 120.482 91.476z" fill="#ffffff" stroke-width="none" opacity="0.6"/>
                    <path id="SvgjsPath4346" d="M131.673 86.632c-1.198 0.718-2.999 0.072-4.02-1.445 -1.02-1.518-0.867-3.331 0.332-4.047 1.196-0.721 3-0.074 4.015 1.444C133.019 84.101 132.871 85.913 131.673 86.632z" fill="#ffffff" stroke-width="none" opacity="0.9"/>
                  </g>
                </g>
              </g>
              <g id="svga-group-eyesfront-right">
                <path id="SvgjsPath4186" d="M126.5 63c-9.94 0-18 11.192-18 25 0 13.807 8.06 24.999 18 24.999s18-11.192 18-24.999C144.5 74.192 136.44 63 126.5 63zM127.538 92.163c-3.614 0.398-13.873-1.561-14.253-2.847 -0.687-2.32 4.534-6.921 12.052-7.844 7.52-0.922 13.217 0.767 12.711 3.051C136.826 90.04 131.202 91.758 127.538 92.163z" fill="#f3d4cf" stroke-width="none" opacity="1"/>
                <path id="SvgjsPath4187" d="M127.538 92.163c-3.614 0.398-13.873-1.561-14.253-2.847 -0.687-2.32 4.534-6.921 12.052-7.844 6.46-0.792 11.563 0.345 12.556 2.128 -0.898-6.4-7.7-11.397-15.987-11.434 -8.911-0.037-16.148 5.676-16.172 12.765 -0.021 7.088 7.185 12.862 16.095 12.902 8.913 0.037 16.149-5.676 16.173-12.764 0-0.105-0.016-0.208-0.019-0.313C136.652 90.083 131.148 91.764 127.538 92.163z" fill="url(#SvgjsRadialGradient4188)" opacity="1"/>
                <path id="SvgjsPath4192" d="M138.048 84.523c0.506-2.285-5.191-3.973-12.711-3.051 -7.518 0.923-12.738 5.524-12.052 7.844 0.38 1.286 10.639 3.245 14.253 2.847C131.202 91.758 136.826 90.04 138.048 84.523z" fill="url(#SvgjsRadialGradient4193)" opacity="1"/>
                <path id="SvgjsPath4196" d="M137.651 79.417c-4.208-1.978-9.35-2.16-13.838-1.005 -2.404 0.561-4.965 1.285-7.063 2.638 -1.945 1.135-3.525 2.5-5.002 4.19 1.342-1.701 2.773-3.118 4.623-4.27 2.276-1.416 4.769-2.294 7.364-2.916C128.322 76.928 133.458 77.184 137.651 79.417z" fill="#c5796d" stroke-width="none" opacity="1"/>
                <path id="SvgjsPath4197" d="M142.682 80.972c0 0-2.328 0.881-3.595 0.62 0.39-0.459 1.096-1.604 1.096-1.604s-1.853 0.551-3.151 0.032c-0.88-0.352-4.065-1-5.456-1.066 -1.687-0.082-5.073 0.125-6.735 0.424 -3.374 0.608-8.985 2.63-11.678 7.184 -0.255 0.572-1.407 0.921-1.407 0.921s1.02-0.215 1.149 0.042c0.282 0.561-1.298 2.016-1.496 2.197 0.161-0.145 1.289-1.135 1.722-0.967 0.061 0.022 0.137 0.388 0.155 0.482 -0.3-2.426 4.838-6.746 12.052-7.604 7.52-0.894 13.217 0.743 12.711 2.958 -1.222 5.348-6.846 7.013-10.51 7.405 -2.526 0.271-8.298-0.577-11.675-1.537l-1.011-0.317c1.999 1.009 7.524 2.195 9.767 2.403 0.744 0.07 2.24 0.104 2.986 0.085 5.949-0.158 10.16-3.179 11.729-7.26 0.125-0.328 0.494-0.619 0.838-0.696 1.604-0.361 5.096-1.811 5.096-1.811 -2.32 0.361-3.483 0.674-5.305 0.059C141.743 82.256 142.682 80.972 142.682 80.972z" fill="#000000" stroke-width="none" opacity="1"/>
              </g>
            </g>
          </g>
          <g id="svga-group-facehighlight-single">
            <path id="SvgjsPath2769" d="M140.204 113.007c0.035 22.275-17.995 40.365-40.273 40.396 -22.274 0.036-40.361-17.993-40.396-40.272C59.501 90.857 77.53 72.77 99.808 72.735 122.083 72.701 140.171 90.73 140.204 113.007z" fill="url(#SvgjsRadialGradient2770)" opacity="1"/>
            <path id="SvgjsPath2773" d="M135,55.999c0,19.329-15.671,35-35,35c-19.329,0-35-15.671-35-35s15.671-35,35-35C119.329,20.999,135,36.67,135,55.999z" fill="url(#SvgjsRadialGradient2774)" opacity="1"/>
          </g>
          <g id="svga-group-eyebrows-left-move" transform="matrix(1,0,0,1,0,2)">
            <g id="svga-group-eyebrows-left-rotate" transform="matrix(0.9825664758682251,-0.1859116107225418,0.1859116107225418,0.9825664758682251,-11.848614692687988,14.910293579101562)">
              <g id="svga-group-eyebrows-left" transform="matrix(0.8999997000000001,0,0,0.8999997000000001,7.339455497609521,7.048930143309015)">
                <path id="SvgjsPath4351" d="M57.672 67.988c7.019 3.546 13.071 4.443 29.64 6.435 0.542 0.086 0.929 0.187 1.277 0.191 1.666-0.032 3.083-1.561 2.854-2.926C90.66 66.485 64.682 68.92 57.672 67.988z" fill="#2a232b" stroke-width="none" opacity="1"/>
              </g>
            </g>
          </g>
          <g id="svga-group-eyebrows-right-move" transform="matrix(1,0,0,1,0,2)">
            <g id="svga-group-eyebrows-right-rotate" transform="matrix(0.9825664758682251,0.1859116107225418,-0.1859116107225418,0.9825664758682251,15.188939094543457,-22.53301239013672)">
              <g id="svga-group-eyebrows-right" transform="matrix(0.8999997000000001,0,0,0.8999997000000001,12.660604693125904,7.048930143309015)">
                <path id="SvgjsPath4352" d="M142.328 67.988c-10.868 5.491-21.39 4.561-29.64 6.435 -1 0.159-1.385 0.356-2.354-0.054 -2.145-0.933-2.398-3.339-0.594-4.002C117.75 66.365 132.818 69.252 142.328 67.988z" fill="#2a232b" stroke-width="none" opacity="1"/>
              </g>
            </g>
          </g>
          <g id="svga-group-nose-single-move" transform="matrix(1,0,0,1,0,0)">
            <g id="svga-group-nose-single" transform="matrix(1,0,0,1,0,0)">
              <path id="SvgjsPath3645" d="M99.774 119.881c-0.868 0-1.793 0.006-2.595-0.354 -0.858-0.387-1.429-0.54-2.317-0.86 -0.858-0.31-1.889 0.445-2.748 0.516 -0.694 0.057-1.487-0.142-1.911-0.685 -1.43-1.829 0.273-2.953 0.273-2.953s-0.557 1.283-0.202 1.853c0.304 0.485 0.752 0.882 1.306 1.015 0.923 0.225 1.802-0.454 2.708-0.525 1.013-0.079 1.748-0.097 2.482 0.495 0.732 0.591 1.532 0.704 2.463 0.752 0.865 0.045 1.771 0.082 2.583-0.251 0.709-0.289 1.303-0.797 1.967-1.17 1.414-0.792 2.525 0.202 4.001 0.604 1.182 0.323 2.456-0.82 1.993-2.122 -0.264-0.741-0.221-1.183-0.221-1.183s1.126 0.511 1.059 1.768c-0.085 1.566-1.45 2.665-2.992 2.253 -0.758-0.2-1.574-0.771-2.378-0.626 -0.818 0.146-1.446 0.147-2.126 0.594C102.092 119.673 101.004 119.881 99.774 119.881z" fill="#c5796d" stroke-width="none" opacity="1"/>
              <path id="SvgjsPath3646" d="M93.63 110.544c0 0 3.096-4.31 5.907-4.362 2.605-0.048 6.032 3.786 6.032 3.786s-3.158-1.323-6.284-1.104C96.495 109.06 93.63 110.544 93.63 110.544z" fill="#ebc3bd" stroke-width="none" opacity="1"/>
            </g>
          </g>
          <g id="svga-group-hair-front" transform="matrix(0.9599997000000001,0,0,0.9997997000000002,3.9502501924501274,0.010488665901362992)">
            <path id="SvgjsPath4330" d="M142.198 28.734c-9.237-8.79-44.549-0.761-55.197 0.239C76.86 29.755 63.475-1.366 43.396 78.452c0.045 3.839 1.29 10.633 2.796 15.468 0.145-0.101 0.286-0.208 0.431-0.306 0 0-0.518 3.257 6.058 14.39 -0.348-8.073 1.212-13.893 2.492-21.414 15.709-19.987 30.389-24.674 41.56-28.155C89.233 67.19 81.814 75.225 78.568 84c13.647-9.576 32.409-28.884 32.409-28.884S109.574 59.819 83.292 84c10.943-2.679 31.345-13.679 45.636-34.951 2.746 4.5-12.4 30.794-12.827 31.801 7.663-6.086 18.079-14.636 20.755-24.62 0 0 1.571 4.043 2.662 8.635 2.878 12.162 2.904 27.281 3.429 31.125 1.665-8.721 1.925-18.482 1.922-18.355 3.905 17.893 0.419 30.394 0.352 34.724 5.198-10.435 10.604-22.897 12.177-34.534C157.396 77.824 145.779 27.134 142.198 28.734z" fill="#2a232b" stroke-width="none" opacity="0.1"/>
            <path id="SvgjsPath4331" d="M170.618 67.866c-0.08-5.39-1.12-13.92-2.921-18.78 3.28 3.39 7.41 7.39 10.78 9.5 -4.46-3.86-5.841-7.16-15.921-28.3 -6.189-12.98-10.287-26.75-22.378-28.37 -4.079-0.56-8.05 0.99-11.779 2.59 -9.61-8.79-21.59-12.331-32.67-11.331 -33.88 2.51-42.917 24.391-61.037 28.771 2.84 0.83 7.616-0.468 10.336-1.748 -3.75 5.06-2.422 4.531-10.692 12.801 -3.37 3.34-6.483 7.444-10.543 9.854 5.449-0.681 8.312-4.834 16.282-9.104 -1.15 1.84-5.249 8.094-11.929 14.494 -2.87 2.74-7.599 6.584-10.899 8.914 2.41-0.96 9.489-3.726 15.608-9.152 -3.169 4.531-12.261 12.94-8.145 29.881 0.832-7.406-0.001-16.415 7.048-20.895 -0.784 3.301-3.814 10.222-1.603 17.708H41.09c0.047 3.839 1.341 10.934 2.909 15.769 0.151-0.101 0.297-0.208 0.449-0.306 0 0 0.502 3.257 7.343 14.39 -0.364-8.073 0.222-13.893 1.553-21.414 16.345-19.987 31.619-24.674 43.241-28.155 -7.804 8.755-13.814 18.837-17.193 27.612 11.046-11.66 33.834-29.767 33.834-29.767s-0.364 4.866-27.712 29.046c9.449-5.795 29.698-15.006 44.566-36.278 2.858 4.5-10.819 30.794-11.264 31.801 7.974-6.086 14.646-16.636 17.435-26.62 0 0 3.716 6.043 4.847 10.635 2.995 12.162 1.984 22.281 2.528 26.125 1.732-8.721 3.042-13.482 3.039-13.355 4.066 17.893-0.604 32.394-0.672 36.724 5.406-10.434 12.072-24.997 13.709-36.634H171.3C170.631 69.944 171.127 69.932 170.618 67.866z" fill="#2a232b" stroke-width="none" opacity="1"/>
            <path id="SvgjsPath4332" d="M177.236 37.286c-3.811-0.17-5.876 0.099-10.356-0.261 -0.67-1.53-2.738-5.55-3.438-7.07C166.941 33.055 174.206 36.976 177.236 37.286z" fill="#0c080c" stroke-width="none" opacity="1"/>
            <path id="SvgjsPath4333" d="M40.385 33.266c-7.787 4.224-11.305 8.458-15.656 9.179 4.06-2.41 6.46-5.99 9.83-9.33 8.27-8.27 7.26-8.3 11.01-13.36 -2.604 1.225-7.117 2.837-9.989 2.247C49.1 20.922 63.972 3.71 80 6 63.505 7.833 49.533 19.744 40.385 33.266zM118.817 77.397c11.188-23.146 11.904-26.578 11.264-31.801 -13.432 19.217-40.876 34.016-44.566 36.278 16.33-14.438 23.567-24.358 26.301-27.924C89.192 71.938 89.208 72.234 79.392 82.595c5.663-14.707 2.783-11.447 17.193-27.612 -6.263 1.876-11.361 3.689-15.442 5.618 0.567-1.342 0.738-2.05 2.64-4.833 7.124-4.361 21.086-15.032 31.086-18.481 -3.529 2.783-5.345 6.283-8.84 9.096 5.358-1.356 11.907-2.056 22.24-7.796 -0.553 0.442 17.922-8.631 11.935-19.03 3.684 2.625 0.95 13.336-0.784 23.305 3.888 5.373 4.755 11.915 6.033 18.583 0.121-2.193 0.47-7.496 0.016-9.648 2.284 5.926 5.567 13.815 5.526 22.481C155.411 62.569 152 52 152 41c3.791 6.331 5.29 17.906 6.192 25.033 0.916-4.582 1.52-8.026-0.544-14.033 1.302 1.624 3.089 2.834 4.352 5 -1.721-9.445-4.858-16.042-9.204-22.833C156.921 38.936 163 43 165 49c-1-11-5-22-12-31 3.743 4.367 7.097 8.734 10.061 13.343 9.618 20.183 11.033 23.448 15.417 27.242 -3.37-2.11-7.5-6.109-10.78-9.5 1.801 4.86 2.841 13.39 2.921 18.78 0.509 2.065 0.013 2.178 0.682 6.505h-11.597c-1.637 11.637-8.303 26.1-13.709 36.534 0.066-4.227 4.514-18.146 0.944-35.449 -0.088-0.424-0.175-0.847-0.272-1.275 0.003-0.127-1.307 4.635-3.039 13.355 -0.544-3.844 0.467-13.963-2.528-26.125 -1.131-4.592-4.847-10.635-4.847-10.635C128.832 69.641 120.864 76.769 118.817 77.397zM94.869 43.184C85.796 45.839 77 53 70 60c2-3 3-7 6-10 5-10 14-17 21-25 -15 9-24 22-35 35 3-6 6-14 11-19 -10 5-12 15-19 23 4-32 34-69 69-58C88.059-7.698 53.547 29.071 45.395 68.148 45.361 64.358 45.921 43.079 54 35c-8 6-10 16-15 23 -0.814-4.072 1.024-7.481 2.274-10.767 -1.054 1.576-3.016 2.758-4.23 4.512C39.577 43.671 42.073 35.284 50 30c-4.726 2.363-8.216 5.96-12.902 8.362 -2.15 2.944-5.13 6.637-8.769 10.124 -2.87 2.74-6.98 5.88-10.28 8.21 2.41-0.96 9.3-4.7 15.47-9.49 -2.95 4.77-12.27 12.74-8.9 29.41 0.33-7.42 0.52-15.68 7.57-20.16C31.405 59.757 28.145 67.514 30.356 75H41.09c0.047 3.839 1.341 10.633 2.909 15.468 0.151-0.101 0.297-0.208 0.449-0.306 0 0 0.318 1.985 3.66 8.081 0.96 1.751 2.157 3.824 3.684 6.309 -0.364-8.073 0.222-13.893 1.553-21.414 9.843-12.036 19.295-18.52 27.798-22.537C81.859 58.904 84.681 51.958 94.869 43.184z" fill="#1b141c" stroke-width="none" opacity="1"/>
            <path id="SvgjsPath4334" d="M39.14 35.028C50.711 12.323 73.942 5.8 82.235 5.829 64.286 9.892 51.536 17.819 39.14 35.028zM112.286 4.067C99.313 3.229 75.107 11.58 62.155 38.708 76.494 13.067 102.913 3.465 112.286 4.067zM144.313 7.883c-0.668-0.242-1.258-0.718-1.929-0.979 -7.811-3.035-14.957 2.381-15.565 7.654C127.992 9.383 135.786 4.803 144.313 7.883zM138.188 11.621c12.901-3.002 23.234 21.063 23.497 22.066C159.6 25.7 150.582 7.854 138.528 10.768c-3.965 0.959-7.038 3.953-9.309 7.198C131.586 15.113 134.468 12.47 138.188 11.621zM92.531 49.976c7.02-5.938 39.023-15.771 37.895-29.705C130.234 32.882 105.025 39.407 92.531 49.976zM123.893 16.667c-2.088-0.968-6.35-4.938-17.326 1.636C88.869 28.902 77.858 46.716 75.207 51.149 83.655 39.44 109.684 10.093 123.893 16.667z" fill="#0c080c" stroke-width="none" opacity="1"/>
            <path id="SvgjsPath4335" d="M77.774 9.337C58.393 16.2 45.395 30.218 45.395 30.218 54.68 20.083 63.288 12.957 77.774 9.337zM52.747 32.614c1.826-3.136 16.3-19.207 24.673-22.069C68.571 12.888 57.47 24.503 52.747 32.614zM72.415 30.195c0 0 14.956-18.491 31.382-22.259C90.858 9.004 79.387 19.403 72.415 30.195zM91.168 35.718c0.92-1.296 18.853-16.116 26.805-18.162C109.279 18.78 93.755 32.075 91.168 35.718zM106.619 29.037c1.081-1.479 8.328-8.794 17.066-9.925C115.821 19.303 111.162 22.824 106.619 29.037zM98.693 39.328c4.613-6.021 17.328-8.604 25.865-17.449C116.765 29.092 105.065 31.012 98.693 39.328zM114.135 42.83c1.002 0 18.698-9.222 22.402-13.077 3.405-3.543 3.938-7.255 1.396-8.925 3.425 3.821-1.259 7.586-3.095 9.151C133.101 31.461 125.346 36.745 114.135 42.83 114.136 42.83 115.105 42.303 114.135 42.83zM133.194 36.025c6.469-4.646 10.608-13.196 6.736-16.54 -1.339-1.156-3.436-1.577-5.168-1.556 1.738-0.021 4.151 0.622 5.297 1.993 4.005 4.778-3.688 12.915-8.86 16.402 -7.433 5.012-16.3 7.966-24.96 10.046C115.538 44.373 125.367 41.646 133.194 36.025zM74.46 34.228c0 0 12.903-15.915 26.442-21.077 1.596-0.608 3.241-0.829 4.901-1.161C93.18 13.181 81.436 23.811 74.46 34.228zM71.001 43.084c1-0.716 18.004-20.675 33.561-26.663C91.336 19.74 78.568 31.611 71.001 43.084zM159.665 35.255c-0.596-1.001-5.457-18.448-15.779-16.404C150.81 18.188 156.162 28.076 159.665 35.255zM150.497 54.228c0.147-4.855 2.044-15.259-6.717-23.478C148.394 36.237 150.662 45.406 150.497 54.228z" fill="#3a353a" stroke-width="none" opacity="1"/>
            <path id="SvgjsPath4336" d="M183.02 61.345c-8.591-7.05-8.95-8.69-15.57-23.75 4.52 0.38 8.39 0.06 12.06-0.2 -7.56-0.74-13.149-6.29-16.029-8.68 -7.57-16.09-13.48-31.96-30.74-26.41 -1.36 0.44-2.71 0.96-4.04 1.57 -7.68-8.32-19.42-12.54-30.32-12.49 -31.79 0.12-46.83 23.91-60.24 29.1 -1.6 0.62-3.38 1.09-5.08 1.49 3.02 1.09 5.67 1.29 10.67-0.75 -6.2 8.24-3.19 3.92-10.56 11.66 -3.32 3.46-6.43 8.08-11.15 10.25 3.97 0.5 6.69-0.69 10.14-3.04 2.39-1.61 4.84-3.66 6.64-4.95 -7.24 11.04-24.31 23.26-24.31 23.26 5.59-1.06 11.42-4.38 16.11-8.14 -0.17 0.23-0.35 0.46-0.52 0.69 -2.46 3.25-4.83 6.75-5.96 10.71 -2.02 7.04-1.06 13.639 1.46 20.489 -0.64-6.07-0.74-18.58 5.67-24.379C30.026 61.248 27.022 68.061 29.164 75h0.875 0.317c-2.211-7.485 1.049-15.243 1.833-18.544 -7.05 4.48-7.24 12.74-7.57 20.16 -3.37-16.67 5.95-24.64 8.9-29.41 -6.17 4.79-13.06 8.53-15.47 9.49 3.3-2.33 7.41-5.47 10.28-8.21 6.68-6.4 11.16-13.52 12.31-15.36 -7.97 4.27-11.51 8.59-15.91 9.32 4.06-2.41 6.46-5.99 9.83-9.33 8.27-8.27 7.26-8.3 11.01-13.36 -2.72 1.28-7.53 2.99-10.37 2.16 18.12-4.38 26.65-25.73 60.53-28.24 11.081-1 23.06 2.04 32.67 10.83 3.729-1.6 7.7-2.95 11.779-2.39 12.091 1.62 15.591 15.19 21.78 28.17 10.08 21.14 11.66 24.14 16.12 28 -3.37-2.11-7.5-6.41-10.78-9.8 1.801 4.86 3.04 13.19 3.12 18.58 -2.05-6.78-5.83-12.26-9.87-17.39 0.851 1.22 8.21 10.8 10.021 22.35 -3.05-6.02-6.92-11.45-11.21-16.62 6.775 9.128 9.306 14.798 11.318 19.136 0.264 0 0.029-0.217 1.079 0.006 -0.079-0.174-0.238-0.532-0.317-0.703 -0.061-1 1.05-12.39-2.931-23.38C173.339 55.875 175.669 58.795 183.02 61.345zM176.439 37.186c-3.811-0.17-4.88-0.2-9.36-0.56 -0.67-1.53-2.34-4.35-3.04-5.87C167.539 33.855 173.409 36.875 176.439 37.186zM156.85 87.045c-2.49 9.14-6.841 19.28-11.99 26.3 1.87-13.8 3.479-27.76 1.779-37.28 -0.569 5.73-1.899 11.2-3.64 16.67 0.41-7.11-0.35-14.37-1.02-21.44 -0.341-3.52-0.83-7.01-1.57-10.47 -0.7-3.29-2.34-6.27-3.84-9.25 -1.78 5.84-4.65 10.85-7.84 16.03 -3.07 4.99-6.88 9.18-11.92 12.14 3.25-5.36 6.229-12.75 8.229-16.96 1.84-3.88 5.39-10.32 4.9-16.33 -5.561 8.7-14.36 16.58-22.58 22.81 -7.86 5.96-24.62 14.67-25.62 15.05 0.2-0.22 9.54-8.66 15.53-14.51 11.36-11.08 13.21-13.3 14.78-15.65 -5.8 5.05-11.42 10.3-17.24 15.33 -5.66 4.89-11.44 9.71-16.74 15.01 1.5-5.41 3.99-10.33 6.6-15.03 2.85-5.11 6.46-9.39 10.58-13.51 -23.378 7.551-39.08 24.38-41.29 27.14 -0.51 4.42-1.17 19.86-0.71 26.4 -5.932-10.697-18.602-27.757-11.658-54.876 -2.687 13.262 0.833 34.105 9.848 48.787 -0.29-6.43 0.32-13.03 1.44-19.36 -1.86 1.91-3.76 3.72-5.87 5.34 1.09-6.52 4.68-12.63 7.9-18.31 3.06-5.37 6.49-10.68 11.13-14.84 -3.67 4.46-6.98 9.89-9.99 15.14 -3.3 5.75-6.98 12.73-8.18 16.9 6.77-6.6 10.3-14.29 26.97-24.64 9.7-6.02 15.45-7.08 21.66-8.94 1.07-1.1 2.13-2.19 3.17-3.32 1.99-2.16 3.74-4.46 5.47-6.83 -6.689 10.42-8.76 10.79-13.779 17.45 -7.61 10.09-8.34 13.08-11.13 19.26 6.1-6.44 9.41-8.49 15.85-14.6 5.07-4.82 16.58-13.46 16.89-13.98 1.25-2.11 2.46-5.22 4.15-8.13 -1.7 3.56-2.63 7.37-4.78 10.7 -2.16 3.34-5.29 6.29-7.97 9.21 -4.42 4.81-10.89 10.75-17.41 16.21 4.99-3.06 10.19-5.66 15.03-8.99 4.7-3.23 9.27-6.71 13.56-10.48 8.301-7.28 15.11-15.79 20.34-25.49 -1.63 3.43-3.42 6.79-5.46 9.99 0.631 3.72-0.199 7.31-1.569 10.78 -0.41 1.04-7.29 16.5-9.37 20.14 2.96-2.26 5.1-5.08 7.16-8.15 6.95-10.4 10.42-17.72 12.35-30.55 -0.399 4.22-0.979 8.44-2.11 12.54 2.061 5.1 3.341 6.48 4.5 10.88 2.12 8.04 2.54 16.39 2.32 24.67 2.26-11.38 3.4-22.64 1.76-34.21 2.41 13.95 1.49 22.32 1.49 22.32 0.5 2.2 0.88 4.42 1.16 6.66 1.21 9.68 0.1 19.31-1.81 28.82 9.399-18.14 11.949-43.65 7.229-63.271 2.04 6.83 3.16 13.82 3.34 20.95 0.181 6.9-0.05 14.01-1.229 20.82 2.29-5.99 4.412-15.707 4.412-17.556C160.342 74.499 158.489 81.005 156.85 87.045z" fill="#000000" stroke-width="none" opacity="1"/>
          </g>
          <g id="svga-group-glasses-single-move" transform="matrix(1,0,0,1,0,0)">
            <g id="svga-group-glasses-single" transform="matrix(1,0,0,1,0,0)">
              <path id="SvgjsPath4349" d="M100,18.13L100,18.13L100,18.13L100,18.13z" fill="#26120b" stroke-width="none" opacity="1"/>
            </g>
          </g>
        </g>
      </g>
    </g>
  </g>
</svg>
